# Blender 3.6.0
# www.blender.org
o Circle.001
v 0.000000 0.000000 0.000000
v 0.000000 0.000000 -2.000000
v -0.347296 0.000000 -1.969615
v -0.684040 0.000000 -1.879385
v -1.000000 0.000000 -1.732051
v -1.285575 0.000000 -1.532089
v -1.532089 0.000000 -1.285575
v -1.732051 0.000000 -1.000000
v -1.879385 0.000000 -0.684040
v -1.969615 0.000000 -0.347296
v -2.000000 0.000000 0.000000
v -1.969615 0.000000 0.347296
v -1.879385 0.000000 0.684040
v -1.732051 0.000000 1.000000
v -1.532089 0.000000 1.285575
v -1.285575 0.000000 1.532089
v -1.000000 0.000000 1.732051
v -0.684040 0.000000 1.879385
v -0.347296 0.000000 1.969615
v 0.000000 0.000000 2.000000
v 0.347296 0.000000 1.969615
v 0.684040 0.000000 1.879385
v 1.000000 0.000000 1.732051
v 1.285575 0.000000 1.532089
v 1.532089 0.000000 1.285575
v 1.732051 0.000000 1.000000
v 1.879385 0.000000 0.684040
v 1.969615 0.000000 0.347296
v 2.000000 0.000000 0.000000
v 1.969615 0.000000 -0.347296
v 1.879385 0.000000 -0.684040
v 1.732051 0.000000 -1.000000
v 1.532089 0.000000 -1.285575
v 1.285575 0.000000 -1.532089
v 1.000000 0.000000 -1.732051
v 0.684040 0.000000 -1.879385
v 0.347296 0.000000 -1.969615
vn -0.0000 1.0000 -0.0000
vt 0.500000 0.500000
vt 0.500000 1.000000
vt 0.413176 0.992404
vt 0.328990 0.969846
vt 0.250000 0.933013
vt 0.178606 0.883022
vt 0.116978 0.821394
vt 0.066987 0.750000
vt 0.030154 0.671010
vt 0.007596 0.586824
vt 0.000000 0.500000
vt 0.007596 0.413176
vt 0.030154 0.328990
vt 0.066987 0.250000
vt 0.116978 0.178606
vt 0.178606 0.116978
vt 0.250000 0.066987
vt 0.328990 0.030154
vt 0.413176 0.007596
vt 0.500000 0.000000
vt 0.586824 0.007596
vt 0.671010 0.030154
vt 0.750000 0.066987
vt 0.821394 0.116978
vt 0.883022 0.178606
vt 0.933013 0.250000
vt 0.969846 0.328990
vt 0.992404 0.413176
vt 1.000000 0.500000
vt 0.992404 0.586824
vt 0.969846 0.671010
vt 0.933013 0.750000
vt 0.883022 0.821394
vt 0.821394 0.883022
vt 0.750000 0.933013
vt 0.671010 0.969846
vt 0.586824 0.992404
s 0
f 1/1/1 2/2/1 3/3/1
f 1/1/1 3/3/1 4/4/1
f 1/1/1 4/4/1 5/5/1
f 1/1/1 5/5/1 6/6/1
f 1/1/1 6/6/1 7/7/1
f 1/1/1 7/7/1 8/8/1
f 1/1/1 8/8/1 9/9/1
f 1/1/1 9/9/1 10/10/1
f 1/1/1 10/10/1 11/11/1
f 1/1/1 11/11/1 12/12/1
f 1/1/1 12/12/1 13/13/1
f 1/1/1 13/13/1 14/14/1
f 1/1/1 14/14/1 15/15/1
f 1/1/1 15/15/1 16/16/1
f 1/1/1 16/16/1 17/17/1
f 1/1/1 17/17/1 18/18/1
f 1/1/1 18/18/1 19/19/1
f 1/1/1 19/19/1 20/20/1
f 1/1/1 20/20/1 21/21/1
f 1/1/1 21/21/1 22/22/1
f 1/1/1 22/22/1 23/23/1
f 1/1/1 23/23/1 24/24/1
f 1/1/1 24/24/1 25/25/1
f 1/1/1 25/25/1 26/26/1
f 1/1/1 26/26/1 27/27/1
f 1/1/1 27/27/1 28/28/1
f 1/1/1 28/28/1 29/29/1
f 1/1/1 29/29/1 30/30/1
f 1/1/1 30/30/1 31/31/1
f 1/1/1 31/31/1 32/32/1
f 1/1/1 32/32/1 33/33/1
f 1/1/1 33/33/1 34/34/1
f 1/1/1 34/34/1 35/35/1
f 1/1/1 35/35/1 36/36/1
f 1/1/1 36/36/1 37/37/1
f 1/1/1 37/37/1 2/2/1
